<svg id="Layer_1" data-name="Layer 1" xmlns="http://www.w3.org/2000/svg" viewBox="0 0 289 28.89"><defs><style>.cls-1{fill:#f28900;}</style></defs><title>logo-dark</title><path d="M59.71 1.66V27.2H56.4v1.69h5.3V.01h-5.3v1.65H59.71z"/><path d="M1.98 1.86v-.25h3.31V.01H0v28.88h5.29v-1.65H1.98V1.86z"/><path d="M21.31 19.13l1.24-.74c3.54-2.22 7-4.81 7-9.95S25.86 0 20.39 0a9.22 9.22 0 0 0-6.89 2.7 10.16 10.16 0 0 0-2.5 7.63v.31h4v-.34A7.32 7.32 0 0 1 16.75 5a4.59 4.59 0 0 1 3.44-1.39 4.79 4.79 0 0 1 5.12 4.79c0 3.61-2 5.23-7 8.32-4.23 2.62-7.52 5.16-8.07 11.79v.35h19.03v-3.64h-14.4c.74-2.71 3.51-4.36 6.44-6.09z"/><path d="M47.42 18.62V0h-3.94l-12.2 17.74-.06.83v3.69h12.36v6.61h3.84v-6.62h3.82v-3.63zm-12.36 0l8.52-12.54v12.54z"/><path class="cls-1" d="M66.86 0v3.9H81.5a41.53 41.53 0 0 0-10.91 24.64v.35h4.52v-.31c.51-8.74 5.1-19.28 10.92-25l.1-.1V0z"/><path d="M98 11a4.76 4.76 0 0 1 1.57.24 3.29 3.29 0 0 1 1.21.72 3.18 3.18 0 0 1 .77 1.16 4.58 4.58 0 0 1 0 3.1 3.17 3.17 0 0 1-.77 1.16 3.29 3.29 0 0 1-1.21.72 4.76 4.76 0 0 1-1.57.24h-4.53v5.51h-1.23V11zm-.27 6.3a3.16 3.16 0 0 0 2.07-.65 2.41 2.41 0 0 0 .79-2 2.41 2.41 0 0 0-.79-2 3.17 3.17 0 0 0-2.07-.65h-4.26v5.26z"/><path d="M104.41 14.59v2.18a3.56 3.56 0 0 1 1.38-1.77 3.51 3.51 0 0 1 2.17-.56v1.16a3.43 3.43 0 0 0-1.4.21 3.16 3.16 0 0 0-1.09.69 3.13 3.13 0 0 0-.71 1.07 3.58 3.58 0 0 0-.25 1.36v5h-1.13v-9.34z"/><path d="M109.55 20.81a3.47 3.47 0 0 0 .55 1.19 3.13 3.13 0 0 0 1 .86 2.67 2.67 0 0 0 1.39.34 2.76 2.76 0 0 0 1.94-.65 3.41 3.41 0 0 0 1-1.73h1.13a4.53 4.53 0 0 1-1.32 2.45 4 4 0 0 1-2.73.86 4.32 4.32 0 0 1-1.9-.39 3.5 3.5 0 0 1-1.31-1.06 4.62 4.62 0 0 1-.75-1.57 7.11 7.11 0 0 1-.24-1.88 6.74 6.74 0 0 1 .24-1.8 4.84 4.84 0 0 1 .75-1.58 3.75 3.75 0 0 1 1.31-1.12 4 4 0 0 1 1.9-.42 3.67 3.67 0 0 1 3.2 1.63 4.9 4.9 0 0 1 .71 1.67 7.35 7.35 0 0 1 .18 1.92h-7.15a5 5 0 0 0 .1 1.28zm5.62-3.47a3.42 3.42 0 0 0-.58-1.05 2.92 2.92 0 0 0-.92-.74 2.63 2.63 0 0 0-1.22-.28 2.68 2.68 0 0 0-1.24.28 2.91 2.91 0 0 0-.92.74 3.67 3.67 0 0 0-.6 1.06 5.18 5.18 0 0 0-.3 1.23h6a4.1 4.1 0 0 0-.22-1.24z"/><path d="M125.18 23.87v-1.76a2.68 2.68 0 0 1-.53.83 3.46 3.46 0 0 1-.8.64 4.14 4.14 0 0 1-1 .4 3.74 3.74 0 0 1-1 .14 4.12 4.12 0 0 1-1.84-.39 3.71 3.71 0 0 1-1.31-1.06 4.56 4.56 0 0 1-.77-1.57 7.15 7.15 0 0 1 0-3.76 4.56 4.56 0 0 1 .77-1.57 3.79 3.79 0 0 1 1.3-1.06 4 4 0 0 1 1.84-.4 4.13 4.13 0 0 1 1 .13 3.42 3.42 0 0 1 .93.39 3.28 3.28 0 0 1 .76.64 2.69 2.69 0 0 1 .51.88V11h1.13v12.87zM119 20.66a4 4 0 0 0 .54 1.27 3 3 0 0 0 .95.91 2.61 2.61 0 0 0 1.39.35 3 3 0 0 0 1.52-.35 3 3 0 0 0 1-.91 3.74 3.74 0 0 0 .56-1.27 6.08 6.08 0 0 0 0-2.86 3.75 3.75 0 0 0-.56-1.27 3 3 0 0 0-1-.91 3.05 3.05 0 0 0-1.52-.35 2.61 2.61 0 0 0-1.39.35 3 3 0 0 0-.95.91 4 4 0 0 0-.54 1.27 6.08 6.08 0 0 0 0 2.86z"/><path d="M129.54 11v1.82h-1.13V11zm0 3.56v9.29h-1.13v-9.26z"/><path d="M137.41 15.87a2.47 2.47 0 0 0-1.76-.59 2.87 2.87 0 0 0-1.42.34 3.13 3.13 0 0 0-1 .9 4.09 4.09 0 0 0-.61 1.27 5.17 5.17 0 0 0 0 2.9 4.09 4.09 0 0 0 .61 1.27 3.13 3.13 0 0 0 1 .9 2.86 2.86 0 0 0 1.42.34 2.52 2.52 0 0 0 1-.2 2.64 2.64 0 0 0 .83-.55 2.93 2.93 0 0 0 .59-.84 3.11 3.11 0 0 0 .29-1.06h1.13a4.29 4.29 0 0 1-1.24 2.64 3.64 3.64 0 0 1-2.59.94 4.36 4.36 0 0 1-1.88-.39 4 4 0 0 1-1.38-1.05 4.6 4.6 0 0 1-.85-1.56 6.4 6.4 0 0 1 0-3.8 4.6 4.6 0 0 1 .85-1.56 4.08 4.08 0 0 1 1.38-1.06 4.27 4.27 0 0 1 1.88-.4 4 4 0 0 1 2.53.79 3.38 3.38 0 0 1 1.23 2.39h-1.13a3.12 3.12 0 0 0-.88-1.62z"/><path d="M144.75 14.59v1h-1.89v6.26a2 2 0 0 0 .15.87q.15.31.76.35a8.76 8.76 0 0 0 1-.05v1h-1a2.24 2.24 0 0 1-1.58-.44 2.22 2.22 0 0 1-.43-1.63v-6.41h-1.62v-1h1.62V11.8h1.13v2.79z"/><path d="M147.54 11v1.82h-1.13V11zm0 3.56v9.29h-1.13v-9.26z"/><path d="M149.93 14.59l2.92 8.15 2.88-8.15h1.17l-3.47 9.29h-1.21l-3.58-9.29z"/><path d="M158.89 20.81a3.49 3.49 0 0 0 .55 1.18 3.14 3.14 0 0 0 1 .86 2.67 2.67 0 0 0 1.39.34 2.76 2.76 0 0 0 1.94-.65 3.42 3.42 0 0 0 1-1.73h1.13a4.53 4.53 0 0 1-1.32 2.45 4 4 0 0 1-2.73.86 4.33 4.33 0 0 1-1.9-.39 3.5 3.5 0 0 1-1.3-1.06 4.62 4.62 0 0 1-.75-1.57 7.11 7.11 0 0 1-.24-1.88 6.74 6.74 0 0 1 .24-1.8 4.84 4.84 0 0 1 .75-1.58 3.75 3.75 0 0 1 1.3-1.12 4 4 0 0 1 1.9-.42 3.67 3.67 0 0 1 3.15 1.65 4.88 4.88 0 0 1 .71 1.67 7.35 7.35 0 0 1 .18 1.92h-7.15a5 5 0 0 0 .15 1.27zm5.62-3.47a3.4 3.4 0 0 0-.58-1.05 2.9 2.9 0 0 0-.92-.74 2.64 2.64 0 0 0-1.22-.28 2.67 2.67 0 0 0-1.24.28 2.9 2.9 0 0 0-.92.74 3.69 3.69 0 0 0-.6 1.06 5.18 5.18 0 0 0-.3 1.23h6a4.1 4.1 0 0 0-.23-1.24z"/><path d="M173.5 21.3a2.71 2.71 0 0 0 .89 1.06 3.71 3.71 0 0 0 1.34.57 7.67 7.67 0 0 0 1.66.17 4.68 4.68 0 0 0 1.1-.14 3.82 3.82 0 0 0 1.11-.46 2.83 2.83 0 0 0 .86-.81 2.06 2.06 0 0 0 .34-1.2 1.75 1.75 0 0 0-.24-.94 2.22 2.22 0 0 0-.63-.67 3.7 3.7 0 0 0-.85-.44 8.43 8.43 0 0 0-.92-.28l-2.86-.7a8.49 8.49 0 0 1-1.09-.36 3.1 3.1 0 0 1-.93-.58 2.74 2.74 0 0 1-.64-.88 3 3 0 0 1-.24-1.28 4.08 4.08 0 0 1 .18-1.1 3 3 0 0 1 .67-1.19 3.94 3.94 0 0 1 1.36-.94 5.45 5.45 0 0 1 2.21-.39 6.46 6.46 0 0 1 1.82.25 4.48 4.48 0 0 1 1.51.76 3.64 3.64 0 0 1 1.42 3h-1.22a3 3 0 0 0-.33-1.29 2.89 2.89 0 0 0-.77-.92 3.4 3.4 0 0 0-1.1-.56 4.46 4.46 0 0 0-1.3-.19 5.36 5.36 0 0 0-1.21.14 3 3 0 0 0-1 .43 2.24 2.24 0 0 0-.71.78 2.46 2.46 0 0 0-.27 1.21 1.87 1.87 0 0 0 .15.78 1.66 1.66 0 0 0 .42.57 2.26 2.26 0 0 0 .62.38 4.73 4.73 0 0 0 .75.23l3.13.77a9.05 9.05 0 0 1 1.29.44 4.27 4.27 0 0 1 1.06.65 2.73 2.73 0 0 1 .72.94 3.17 3.17 0 0 1 .26 1.35 4.81 4.81 0 0 1 0 .58 2.9 2.9 0 0 1-.22.77 3.82 3.82 0 0 1-.49.82 3.06 3.06 0 0 1-.86.75 5 5 0 0 1-1.36.54 8 8 0 0 1-1.94.21 8.1 8.1 0 0 1-2.11-.26 4.53 4.53 0 0 1-1.66-.8 3.53 3.53 0 0 1-1.05-1.39 4.54 4.54 0 0 1-.32-2h1.22a3.61 3.61 0 0 0 .23 1.62z"/><path d="M184.57 20.81a3.47 3.47 0 0 0 .55 1.18 3.13 3.13 0 0 0 1 .86 2.67 2.67 0 0 0 1.39.34 2.76 2.76 0 0 0 1.94-.65 3.41 3.41 0 0 0 1-1.73h1.13a4.53 4.53 0 0 1-1.32 2.45 4 4 0 0 1-2.73.86 4.32 4.32 0 0 1-1.9-.39 3.5 3.5 0 0 1-1.31-1.06 4.62 4.62 0 0 1-.75-1.57 7.11 7.11 0 0 1-.24-1.88 6.74 6.74 0 0 1 .24-1.8 4.84 4.84 0 0 1 .75-1.58 3.75 3.75 0 0 1 1.31-1.12 4 4 0 0 1 1.9-.42 3.67 3.67 0 0 1 3.2 1.63 4.9 4.9 0 0 1 .71 1.67 7.35 7.35 0 0 1 .18 1.92h-7.22a5 5 0 0 0 .17 1.29zm5.62-3.47a3.42 3.42 0 0 0-.58-1.05 2.92 2.92 0 0 0-.92-.74 2.63 2.63 0 0 0-1.22-.28 2.68 2.68 0 0 0-1.24.28 2.91 2.91 0 0 0-.92.74 3.67 3.67 0 0 0-.6 1.06 5.18 5.18 0 0 0-.3 1.23h6a4.1 4.1 0 0 0-.22-1.24z"/><path d="M193.31 16a2.66 2.66 0 0 1 .78-1 3.32 3.32 0 0 1 1.16-.56 5.64 5.64 0 0 1 1.48-.18 6.5 6.5 0 0 1 1.22.12 3 3 0 0 1 1.1.44 2.4 2.4 0 0 1 .79.91 3.28 3.28 0 0 1 .31 1.52v4.93a.6.6 0 0 0 .67.68.88.88 0 0 0 .36-.07v1l-.35.05h-.39a1.7 1.7 0 0 1-.69-.12.92.92 0 0 1-.41-.33 1.26 1.26 0 0 1-.19-.51 4.5 4.5 0 0 1 0-.66 7.88 7.88 0 0 1-.62.8 3.11 3.11 0 0 1-.7.58 3.27 3.27 0 0 1-.88.36 4.84 4.84 0 0 1-1.18.13 4.67 4.67 0 0 1-1.21-.15 2.73 2.73 0 0 1-1-.49 2.33 2.33 0 0 1-.67-.85 2.83 2.83 0 0 1-.24-1.22 2.4 2.4 0 0 1 .43-1.52 2.73 2.73 0 0 1 1.14-.84 6.54 6.54 0 0 1 1.6-.4l1.81-.23q.36 0 .63-.09a1.1 1.1 0 0 0 .45-.19.88.88 0 0 0 .28-.37 1.6 1.6 0 0 0 .1-.61 2.07 2.07 0 0 0-.19-.95 1.5 1.5 0 0 0-.52-.58 2.09 2.09 0 0 0-.77-.3 5.22 5.22 0 0 0-.95-.08 2.86 2.86 0 0 0-1.76.51 2 2 0 0 0-.72 1.65H193a3.79 3.79 0 0 1 .31-1.38zm5.69 2.8a.65.65 0 0 1-.41.29 4.2 4.2 0 0 1-.54.13q-.72.13-1.48.23a8.14 8.14 0 0 0-1.4.3 2.73 2.73 0 0 0-1 .57 1.35 1.35 0 0 0-.41 1.05 1.65 1.65 0 0 0 .17.77 1.85 1.85 0 0 0 .46.58 2 2 0 0 0 .67.37 2.43 2.43 0 0 0 .77.13A3.9 3.9 0 0 0 197 23a3 3 0 0 0 1-.58 2.74 2.74 0 0 0 1-2.14V18.8z"/><path d="M203.46 14.59v2.18a3.57 3.57 0 0 1 1.38-1.77 3.51 3.51 0 0 1 2.17-.56v1.16a3.43 3.43 0 0 0-1.4.21 3.17 3.17 0 0 0-1.09.69 3.13 3.13 0 0 0-.71 1.07 3.58 3.58 0 0 0-.25 1.36v5h-1.13v-9.34z"/><path d="M213.46 15.87a2.47 2.47 0 0 0-1.76-.59 2.87 2.87 0 0 0-1.42.34 3.12 3.12 0 0 0-1 .9 4.07 4.07 0 0 0-.61 1.27 5.17 5.17 0 0 0 0 2.9 4.07 4.07 0 0 0 .61 1.27 3.11 3.11 0 0 0 1 .9 2.87 2.87 0 0 0 1.42.34 2.52 2.52 0 0 0 1-.2 2.66 2.66 0 0 0 .83-.55 2.93 2.93 0 0 0 .59-.84 3.09 3.09 0 0 0 .29-1.06h1.13a4.28 4.28 0 0 1-1.24 2.64 3.64 3.64 0 0 1-2.59.94 4.36 4.36 0 0 1-1.88-.39 4 4 0 0 1-1.38-1.05 4.58 4.58 0 0 1-.85-1.56 6.4 6.4 0 0 1 0-3.8 4.59 4.59 0 0 1 .85-1.56 4.1 4.1 0 0 1 1.38-1.06 4.27 4.27 0 0 1 1.88-.4 4 4 0 0 1 2.53.79 3.38 3.38 0 0 1 1.23 2.39h-1.13a3.12 3.12 0 0 0-.88-1.62z"/><path d="M218.22 11v5.17a2.72 2.72 0 0 1 1.15-1.36 3.39 3.39 0 0 1 1.82-.51 4.58 4.58 0 0 1 1.63.25 2.58 2.58 0 0 1 1.05.71 2.65 2.65 0 0 1 .56 1.12 6.37 6.37 0 0 1 .16 1.49v6h-1.09v-5.8a5.35 5.35 0 0 0-.11-1.11 2.35 2.35 0 0 0-.38-.89 1.83 1.83 0 0 0-.73-.59 2.68 2.68 0 0 0-1.14-.22 2.89 2.89 0 0 0-1.21.24 2.62 2.62 0 0 0-.9.67 3.07 3.07 0 0 0-.58 1 4.11 4.11 0 0 0-.22 1.27v5.42h-1.13V11z"/><path d="M237.43 11a7.77 7.77 0 0 1 1.56.15 3.78 3.78 0 0 1 1.31.52 2.78 2.78 0 0 1 .91 1 3.3 3.3 0 0 1 .18 2.48 3 3 0 0 1-.46.86 2.92 2.92 0 0 1-.7.66 2.61 2.61 0 0 1-.91.38 3 3 0 0 1 2 1 3.13 3.13 0 0 1 .74 2.12 5 5 0 0 1-.05.69 3.34 3.34 0 0 1-.68 1.59 2.78 2.78 0 0 1-.82.69 4.93 4.93 0 0 1-1.26.49 7.39 7.39 0 0 1-1.79.19H232V11zm0 5.63a4.23 4.23 0 0 0 1.28-.17 2.66 2.66 0 0 0 .9-.47 1.93 1.93 0 0 0 .54-.69 2 2 0 0 0 .18-.85q0-2.41-2.9-2.41h-4.21v4.59zm0 6.17a6.88 6.88 0 0 0 1.3-.12 3 3 0 0 0 1.08-.42 2.17 2.17 0 0 0 .74-.82 2.75 2.75 0 0 0 .27-1.29 2.14 2.14 0 0 0-.87-1.86 4.3 4.3 0 0 0-2.51-.62h-4.21v5.13z"/><path d="M244.94 11v1.82h-1.14V11zm0 3.56v9.29h-1.14v-9.26z"/><path d="M254.24 23.87v-1.76a2.68 2.68 0 0 1-.53.83 3.46 3.46 0 0 1-.8.64 4.14 4.14 0 0 1-1 .4 3.74 3.74 0 0 1-1 .14 4.12 4.12 0 0 1-1.84-.39 3.71 3.71 0 0 1-1.31-1.06 4.56 4.56 0 0 1-.77-1.57 7.15 7.15 0 0 1 0-3.76 4.56 4.56 0 0 1 .77-1.57 3.79 3.79 0 0 1 1.24-1.06 4 4 0 0 1 1.84-.4 4.13 4.13 0 0 1 1 .13 3.42 3.42 0 0 1 .93.39 3.28 3.28 0 0 1 .76.64 2.69 2.69 0 0 1 .51.88V11h1.13v12.87zM248 20.66a4 4 0 0 0 .54 1.27 3 3 0 0 0 .95.91 2.61 2.61 0 0 0 1.39.35 3 3 0 0 0 1.52-.35 3 3 0 0 0 1-.91 3.74 3.74 0 0 0 .56-1.27 6.08 6.08 0 0 0 0-2.86 3.75 3.75 0 0 0-.56-1.27 3 3 0 0 0-1-.91 3.05 3.05 0 0 0-1.52-.35 2.61 2.61 0 0 0-1.39.35 3 3 0 0 0-.95.91 4 4 0 0 0-.54 1.27 6.08 6.08 0 0 0 0 2.86z"/><path d="M264.57 23.87v-1.76a2.66 2.66 0 0 1-.53.83 3.43 3.43 0 0 1-.8.64 4.16 4.16 0 0 1-1 .4 3.75 3.75 0 0 1-1 .14 4.12 4.12 0 0 1-1.84-.39 3.7 3.7 0 0 1-1.3-1.06 4.55 4.55 0 0 1-.77-1.57 7.15 7.15 0 0 1 0-3.76 4.54 4.54 0 0 1 .77-1.57 3.79 3.79 0 0 1 1.3-1.07 4 4 0 0 1 1.84-.4 4.13 4.13 0 0 1 1 .13 3.41 3.41 0 0 1 .93.39 3.24 3.24 0 0 1 .76.64 2.68 2.68 0 0 1 .51.88V11h1.13v12.87zm-6.22-3.21a4 4 0 0 0 .54 1.27 3 3 0 0 0 .95.91 2.61 2.61 0 0 0 1.39.35 3 3 0 0 0 1.52-.35 3 3 0 0 0 1-.91 3.73 3.73 0 0 0 .56-1.27 6 6 0 0 0 0-2.86 3.73 3.73 0 0 0-.56-1.27 3 3 0 0 0-1-.91 3.05 3.05 0 0 0-1.52-.35 2.61 2.61 0 0 0-1.39.35 3 3 0 0 0-.95.91 4 4 0 0 0-.54 1.27 6.08 6.08 0 0 0 0 2.86z"/><path d="M268.93 11v1.82h-1.13V11zm0 3.56v9.29h-1.13v-9.26z"/><path d="M272.22 14.59v1.6a2.72 2.72 0 0 1 1.15-1.36 3.38 3.38 0 0 1 1.82-.51 4.58 4.58 0 0 1 1.63.25 2.59 2.59 0 0 1 1.05.71 2.65 2.65 0 0 1 .56 1.12 6.32 6.32 0 0 1 .16 1.49v6h-1.09v-5.8a5.35 5.35 0 0 0-.11-1.11 2.32 2.32 0 0 0-.38-.89 1.83 1.83 0 0 0-.73-.59 2.68 2.68 0 0 0-1.14-.22 2.89 2.89 0 0 0-1.21.24 2.62 2.62 0 0 0-.9.67 3.07 3.07 0 0 0-.58 1 4.11 4.11 0 0 0-.23 1.27v5.42h-1.13v-9.29z"/><path d="M288.4 25a3.62 3.62 0 0 1-.71 1.4 3.1 3.1 0 0 1-1.27.88 5.28 5.28 0 0 1-1.92.31 5.74 5.74 0 0 1-1.37-.16 3.88 3.88 0 0 1-1.2-.5 3 3 0 0 1-.88-.87 2.6 2.6 0 0 1-.41-1.27h1.13a2 2 0 0 0 .35.87 2.09 2.09 0 0 0 .63.57 2.81 2.81 0 0 0 .82.32 4.29 4.29 0 0 0 .92.1 2.72 2.72 0 0 0 2.29-.9 4.14 4.14 0 0 0 .7-2.59v-1.3a3.31 3.31 0 0 1-1.16 1.39 3.1 3.1 0 0 1-1.79.52 4.49 4.49 0 0 1-1.91-.37 3.54 3.54 0 0 1-1.31-1 4.13 4.13 0 0 1-.75-1.52 7.15 7.15 0 0 1-.23-1.86 5.78 5.78 0 0 1 .28-1.81 4.48 4.48 0 0 1 .81-1.49 3.77 3.77 0 0 1 1.31-1 4.16 4.16 0 0 1 1.79-.37 3.27 3.27 0 0 1 1 .14 3.11 3.11 0 0 1 .84.41 3.57 3.57 0 0 1 .67.6 2.73 2.73 0 0 1 .46.72v-1.6h1.13v8.53a7.05 7.05 0 0 1-.22 1.85zm-2.6-2.48a3 3 0 0 0 .94-.83 3.64 3.64 0 0 0 .57-1.18 5 5 0 0 0 .19-1.37 5.9 5.9 0 0 0-.16-1.37 3.93 3.93 0 0 0-.52-1.24 2.84 2.84 0 0 0-.93-.9 2.62 2.62 0 0 0-1.38-.34 2.73 2.73 0 0 0-1.39.33 3 3 0 0 0-1 .87 3.66 3.66 0 0 0-.55 1.23 5.86 5.86 0 0 0-.17 1.41 5.22 5.22 0 0 0 .18 1.37 3.51 3.51 0 0 0 .56 1.18 2.88 2.88 0 0 0 1 .83 2.81 2.81 0 0 0 1.37.31 2.59 2.59 0 0 0 1.29-.32z"/></svg>